# xmcd
#
# Track frame offsets:
#	150
#	6005
#	48260
#	72288
#	100359
#	162728
#	214928
#	229506
#
# Disc length: 4028 seconds
#
# Revision: 1
# Processed by: cddbd v1.5.2PL0 Copyright (c) Steve Scherf et al.
# Submitted via: audiograbber 1.83.01
#
DISCID=680fba08
DTITLE=Grateful Dead - 94-04-01 The Omni, Atlanta GA
DYEAR=1900
DGENRE=
TTITLE0=Tuning
TTITLE1=China Cat Sunflower
TTITLE2=I Know You Rider
TTITLE3=Box Of Rain
TTITLE4=Estimated Prophet
TTITLE5=He's Gone
TTITLE6=That Would Be Something
TTITLE7=Drums
EXTD=
EXTT0=
EXTT1=
EXTT2=
EXTT3=
EXTT4=
EXTT5=
EXTT6=
EXTT7=
PLAYORDER=
